<svg width="11" height="19" viewBox="0 0 11 19" fill="none" xmlns="http://www.w3.org/2000/svg">
<path d="M6.2 9.18C7.02667 9.46 7.71333 9.74667 8.26 10.04C8.80667 10.3333 9.26 10.7267 9.62 11.22C9.99333 11.7 10.18 12.3067 10.18 13.04C10.18 14.04 9.84 14.8733 9.16 15.54C8.49333 16.1933 7.61333 16.5933 6.52 16.74V18.94H5.06V16.78C3.99333 16.6733 3.07333 16.3 2.3 15.66C1.54 15.02 1.00667 14.1933 0.7 13.18L2.32 12.92C2.69333 13.72 3.14667 14.3067 3.68 14.68C4.22667 15.04 4.88667 15.22 5.66 15.22C6.48667 15.22 7.15333 15.0333 7.66 14.66C8.16667 14.2733 8.42 13.7733 8.42 13.16C8.42 12.7067 8.28 12.3267 8 12.02C7.72 11.7133 7.37333 11.4667 6.96 11.28C6.56 11.08 6.02667 10.8667 5.36 10.64C4.52 10.3467 3.82667 10.06 3.28 9.78C2.74667 9.5 2.29333 9.12 1.92 8.64C1.56 8.14667 1.38 7.52667 1.38 6.78C1.38 5.76667 1.72 4.93333 2.4 4.28C3.08 3.61333 3.96667 3.22667 5.06 3.12V0.959999H6.52V3.18C7.4 3.31333 8.15333 3.66667 8.78 4.24C9.42 4.8 9.88667 5.53333 10.18 6.44L8.58 6.7C8.3 6.04667 7.90667 5.54667 7.4 5.2C6.90667 4.84 6.32 4.66 5.64 4.66C4.90667 4.66 4.30667 4.84667 3.84 5.22C3.37333 5.59333 3.14 6.07333 3.14 6.66C3.14 7.11333 3.28 7.49333 3.56 7.8C3.84 8.10667 4.18667 8.36 4.6 8.56C5.01333 8.74667 5.54667 8.95333 6.2 9.18Z" fill="#A5A5A5"/>
</svg>
