<svg width="12" height="15" viewBox="0 0 12 15" fill="none" xmlns="http://www.w3.org/2000/svg">
<path d="M5.96478 3.65252C6.60742 3.65252 7.41298 3.20733 7.8927 2.61374C8.32716 2.07581 8.64395 1.32455 8.64395 0.573285C8.64395 0.471262 8.6349 0.36924 8.6168 0.285767C7.90175 0.313591 7.04188 0.777331 6.52596 1.39874C6.11865 1.87176 5.74755 2.61375 5.74755 3.37428C5.74755 3.48558 5.76565 3.59688 5.7747 3.63398C5.81996 3.64325 5.89237 3.65252 5.96478 3.65252ZM3.70196 14.8751C4.57994 14.8751 4.96914 14.2722 6.06434 14.2722C7.17765 14.2722 7.42203 14.8565 8.39957 14.8565C9.359 14.8565 10.0016 13.9476 10.6081 13.0572C11.2869 12.037 11.5675 11.0353 11.5856 10.9889C11.5223 10.9704 9.68485 10.2005 9.68485 8.03951C9.68485 6.166 11.133 5.32199 11.2145 5.25707C10.2551 3.8473 8.79782 3.8102 8.39957 3.8102C7.32247 3.8102 6.4445 4.47798 5.89237 4.47798C5.29499 4.47798 4.50753 3.8473 3.57525 3.8473C1.8012 3.8473 0 5.34981 0 8.18791C0 9.95012 0.669793 11.8144 1.49346 13.0201C2.19946 14.0403 2.81494 14.8751 3.70196 14.8751Z" fill="white"/>
</svg>
