<svg width="6" height="12" viewBox="0 0 6 12" fill="none" xmlns="http://www.w3.org/2000/svg">
<path d="M6 6C6 6.08026 5.98364 6.1563 5.95092 6.22811C5.92229 6.2957 5.87935 6.35906 5.82209 6.4182L0.96319 11.3289C0.852761 11.443 0.717791 11.5 0.558282 11.5C0.456033 11.5 0.361963 11.4747 0.276074 11.424C0.190184 11.3733 0.122699 11.3036 0.0736196 11.2149C0.0245399 11.1304 0 11.0332 0 10.9234C0 10.7671 0.0531697 10.6298 0.159509 10.5115L4.62577 6L0.159509 1.48848C0.0531697 1.3702 0 1.23291 0 1.07661C0 0.966782 0.0245399 0.869624 0.0736196 0.785138C0.122699 0.696429 0.190184 0.626728 0.276074 0.576037C0.361963 0.525346 0.456033 0.5 0.558282 0.5C0.717791 0.5 0.852761 0.554916 0.96319 0.664747L5.82209 5.5818C5.87935 5.64094 5.92229 5.70641 5.95092 5.77823C5.98364 5.84581 6 5.91974 6 6Z" fill="#767676"/>
</svg>
