<svg width="8" height="14" viewBox="0 0 8 14" fill="none" xmlns="http://www.w3.org/2000/svg">
<path d="M0.271973 6.99634C0.271973 6.86938 0.293945 6.7522 0.337891 6.64478C0.386719 6.53735 0.459961 6.43481 0.557617 6.33716L6.26318 0.756104C6.4292 0.594971 6.62939 0.514404 6.86377 0.514404C7.0249 0.514404 7.16895 0.553467 7.2959 0.631592C7.42773 0.704834 7.53271 0.804932 7.61084 0.931885C7.68896 1.05884 7.72803 1.20288 7.72803 1.36401C7.72803 1.59351 7.6377 1.79858 7.45703 1.97925L2.31543 6.99634L7.45703 12.0134C7.6377 12.1941 7.72803 12.4016 7.72803 12.636C7.72803 12.7922 7.68896 12.9338 7.61084 13.0608C7.53271 13.1926 7.42773 13.2952 7.2959 13.3684C7.16895 13.4465 7.0249 13.4856 6.86377 13.4856C6.62939 13.4856 6.4292 13.4026 6.26318 13.2366L0.557617 7.65552C0.459961 7.55786 0.386719 7.45532 0.337891 7.3479C0.293945 7.24048 0.271973 7.12329 0.271973 6.99634Z" fill="#939393"/>
</svg>
