<svg width="16" height="14" viewBox="0 0 16 14" fill="none" xmlns="http://www.w3.org/2000/svg">
<path d="M10.8467 14C10.4973 14 10.177 13.9096 9.88586 13.7287C9.6 13.5533 9.36973 13.3149 9.19504 13.0135C9.02035 12.7176 8.933 12.3887 8.933 12.027C8.933 11.6653 9.02035 11.3365 9.19504 11.0405C9.36973 10.7391 9.6 10.5007 9.88586 10.3253C10.177 10.1445 10.4973 10.054 10.8467 10.054C11.196 10.054 11.5136 10.1445 11.7995 10.3253C12.0907 10.5007 12.3209 10.7391 12.4903 11.0405C12.665 11.3365 12.7524 11.6653 12.7524 12.027C12.7524 12.3887 12.665 12.7176 12.4903 13.0135C12.3209 13.3149 12.0907 13.5533 11.7995 13.7287C11.5136 13.9096 11.196 14 10.8467 14ZM10.8467 12.9888C11.106 12.9888 11.3257 12.8957 11.5057 12.7093C11.6857 12.523 11.7757 12.2956 11.7757 12.027C11.7757 11.753 11.6857 11.5255 11.5057 11.3447C11.3257 11.1583 11.106 11.0652 10.8467 11.0652C10.5873 11.0652 10.3676 11.1583 10.1876 11.3447C10.0076 11.5255 9.91762 11.753 9.91762 12.027C9.91762 12.2956 10.0076 12.523 10.1876 12.7093C10.3676 12.8957 10.5873 12.9888 10.8467 12.9888ZM9.58412 11.3611V12.6847H0.635236C0.460546 12.6847 0.309677 12.6216 0.18263 12.4956C0.0608768 12.3641 0 12.2079 0 12.027C0 11.8407 0.0608768 11.6845 0.18263 11.5584C0.309677 11.4269 0.460546 11.3611 0.635236 11.3611H9.58412ZM15.3886 11.3611C15.5527 11.3611 15.6956 11.4269 15.8174 11.5584C15.9391 11.6845 16 11.8407 16 12.027C16 12.2079 15.9391 12.3641 15.8174 12.4956C15.6956 12.6216 15.5527 12.6847 15.3886 12.6847H12.2283V11.3611H15.3886ZM5.24069 8.98532C4.89131 8.98532 4.57105 8.89489 4.2799 8.71403C3.99404 8.53318 3.76377 8.29477 3.58908 7.99883C3.41969 7.6974 3.33499 7.36582 3.33499 7.00411C3.33499 6.6424 3.41969 6.31356 3.58908 6.01762C3.76377 5.71619 3.99404 5.47778 4.2799 5.30241C4.57105 5.12155 4.89131 5.03112 5.24069 5.03112C5.59007 5.03112 5.90769 5.12155 6.19355 5.30241C6.4847 5.47778 6.71497 5.71619 6.88437 6.01762C7.05906 6.31356 7.1464 6.6424 7.1464 7.00411C7.1464 7.36582 7.05906 7.6974 6.88437 7.99883C6.71497 8.29477 6.4847 8.53318 6.19355 8.71403C5.90769 8.89489 5.59007 8.98532 5.24069 8.98532ZM5.24069 7.96594C5.50538 7.96594 5.72506 7.87277 5.89975 7.68644C6.07974 7.5001 6.16973 7.27266 6.16973 7.00411C6.16973 6.73008 6.07974 6.50264 5.89975 6.32178C5.72506 6.13545 5.50538 6.04228 5.24069 6.04228C4.98131 6.04228 4.76162 6.13545 4.58164 6.32178C4.40165 6.50264 4.31166 6.73008 4.31166 7.00411C4.31166 7.27266 4.40165 7.5001 4.58164 7.68644C4.76162 7.87277 4.98131 7.96594 5.24069 7.96594ZM0.603474 6.33823H3.87494V7.66177H0.603474C0.444665 7.66177 0.304384 7.59875 0.18263 7.47269C0.0608768 7.34664 0 7.19045 0 7.00411C0 6.81777 0.0608768 6.66158 0.18263 6.53553C0.304384 6.40399 0.444665 6.33823 0.603474 6.33823ZM15.3568 6.33823C15.5368 6.33823 15.6877 6.40399 15.8094 6.53553C15.9365 6.66158 16 6.81777 16 7.00411C16 7.19045 15.9365 7.34664 15.8094 7.47269C15.6877 7.59875 15.5368 7.66177 15.3568 7.66177H6.50323V6.33823H15.3568ZM10.8467 3.9542C10.4973 3.9542 10.177 3.86651 9.88586 3.69113C9.6 3.51028 9.36973 3.27187 9.19504 2.97592C9.02035 2.6745 8.933 2.34292 8.933 1.98121C8.933 1.6195 9.02035 1.29066 9.19504 0.994715C9.36973 0.693286 9.6 0.452143 9.88586 0.271286C10.177 0.0904287 10.4973 0 10.8467 0C11.196 0 11.5136 0.0904287 11.7995 0.271286C12.0907 0.452143 12.3209 0.693286 12.4903 0.994715C12.665 1.29066 12.7524 1.6195 12.7524 1.98121C12.7524 2.34292 12.665 2.6745 12.4903 2.97592C12.3209 3.27187 12.0907 3.51028 11.7995 3.69113C11.5136 3.86651 11.196 3.9542 10.8467 3.9542ZM10.8467 2.94304C11.106 2.94304 11.3257 2.84987 11.5057 2.66353C11.6857 2.47172 11.7757 2.24153 11.7757 1.97299C11.7757 1.70444 11.6857 1.477 11.5057 1.29066C11.3257 1.10433 11.106 1.01116 10.8467 1.01116C10.5873 1.01116 10.3676 1.10433 10.1876 1.29066C10.0076 1.477 9.91762 1.70444 9.91762 1.97299C9.91762 2.24153 10.0076 2.47172 10.1876 2.66353C10.3676 2.84987 10.5873 2.94304 10.8467 2.94304ZM9.62382 1.32355V2.64709H0.635236C0.460546 2.64709 0.309677 2.58407 0.18263 2.45802C0.0608768 2.32648 0 2.16755 0 1.98121C0 1.80035 0.0608768 1.6469 0.18263 1.52085C0.309677 1.38931 0.460546 1.32355 0.635236 1.32355H9.62382ZM15.3886 1.32355C15.5527 1.32355 15.6956 1.38931 15.8174 1.52085C15.9391 1.6469 16 1.80035 16 1.98121C16 2.16755 15.9391 2.32648 15.8174 2.45802C15.6956 2.58407 15.5527 2.64709 15.3886 2.64709H12.1171V1.32355H15.3886Z" fill="#141414"/>
</svg>
