<svg width="14" height="15" viewBox="0 0 14 15" fill="none" xmlns="http://www.w3.org/2000/svg">
<path d="M7.11845 10.6782C7.30734 10.6782 7.46578 10.6142 7.59378 10.4862C7.72134 10.3587 7.78512 10.2004 7.78512 10.0116V7.32822C7.78512 7.13933 7.72134 6.98378 7.59378 6.86156C7.46578 6.73933 7.30734 6.67822 7.11845 6.67822C6.92956 6.67822 6.77134 6.742 6.64378 6.86956C6.51578 6.99756 6.45178 7.156 6.45178 7.34489V10.0282C6.45178 10.2171 6.51578 10.3727 6.64378 10.4949C6.77134 10.6171 6.92956 10.6782 7.11845 10.6782ZM7.11845 5.34489C7.30734 5.34489 7.46578 5.28089 7.59378 5.15289C7.72134 5.02533 7.78512 4.86711 7.78512 4.67822C7.78512 4.48933 7.72134 4.33089 7.59378 4.20289C7.46578 4.07533 7.30734 4.01156 7.11845 4.01156C6.92956 4.01156 6.77134 4.07533 6.64378 4.20289C6.51578 4.33089 6.45178 4.48933 6.45178 4.67822C6.45178 4.86711 6.51578 5.02533 6.64378 5.15289C6.77134 5.28089 6.92956 5.34489 7.11845 5.34489ZM7.11845 14.0116C6.19623 14.0116 5.32956 13.8364 4.51845 13.4862C3.70734 13.1364 3.00178 12.6616 2.40178 12.0616C1.80178 11.4616 1.32689 10.756 0.977116 9.94489C0.626893 9.13378 0.451782 8.26711 0.451782 7.34489C0.451782 6.42267 0.626893 5.556 0.977116 4.74489C1.32689 3.93378 1.80178 3.22822 2.40178 2.62822C3.00178 2.02822 3.70734 1.55311 4.51845 1.20289C5.32956 0.853112 6.19623 0.678223 7.11845 0.678223C8.04067 0.678223 8.90734 0.853112 9.71845 1.20289C10.5296 1.55311 11.2351 2.02822 11.8351 2.62822C12.4351 3.22822 12.91 3.93378 13.2598 4.74489C13.61 5.556 13.7851 6.42267 13.7851 7.34489C13.7851 8.26711 13.61 9.13378 13.2598 9.94489C12.91 10.756 12.4351 11.4616 11.8351 12.0616C11.2351 12.6616 10.5296 13.1364 9.71845 13.4862C8.90734 13.8364 8.04067 14.0116 7.11845 14.0116ZM7.11845 12.6782C8.59623 12.6782 9.85467 12.1589 10.8938 11.1202C11.9324 10.0811 12.4518 8.82267 12.4518 7.34489C12.4518 5.86711 11.9324 4.60867 10.8938 3.56956C9.85467 2.53089 8.59623 2.01156 7.11845 2.01156C5.64067 2.01156 4.38245 2.53089 3.34378 3.56956C2.30467 4.60867 1.78512 5.86711 1.78512 7.34489C1.78512 8.82267 2.30467 10.0811 3.34378 11.1202C4.38245 12.1589 5.64067 12.6782 7.11845 12.6782Z" fill="#1D2433" fill-opacity="0.8"/>
</svg>
