<svg width="13" height="14" viewBox="0 0 13 14" fill="none" xmlns="http://www.w3.org/2000/svg">
<path d="M8 5V2.5C8 2.10218 7.84196 1.72064 7.56066 1.43934C7.27936 1.15804 6.89782 1 6.5 1H2.5C2.10218 1 1.72064 1.15804 1.43934 1.43934C1.15804 1.72064 1 2.10218 1 2.5V11.5C1 11.8978 1.15804 12.2794 1.43934 12.5607C1.72064 12.842 2.10218 13 2.5 13H6.5C6.89782 13 7.27936 12.842 7.56066 12.5607C7.84196 12.2794 8 11.8978 8 11.5V9M10 9L12 7M12 7L10 5M12 7H3.5" stroke="#FF003D" stroke-width="1.2" stroke-linecap="round" stroke-linejoin="round"/>
</svg>
