<svg width="16" height="15" viewBox="0 0 16 15" fill="none" xmlns="http://www.w3.org/2000/svg">
<path d="M4.76562 10.8984C4.01562 10.1484 3.34115 9.35938 2.74219 8.53125C2.14323 7.70312 1.66927 6.8776 1.32031 6.05469C0.971354 5.22656 0.796875 4.4375 0.796875 3.6875C0.796875 3.1875 0.882812 2.71875 1.05469 2.28125C1.23177 1.83854 1.51042 1.4349 1.89062 1.07031C2.35938 0.617188 2.86198 0.390625 3.39844 0.390625C3.60677 0.390625 3.80469 0.434896 3.99219 0.523438C4.17969 0.606771 4.34115 0.742188 4.47656 0.929688L6.15625 3.29688C6.28646 3.47917 6.38281 3.64844 6.44531 3.80469C6.51302 3.96094 6.54688 4.10938 6.54688 4.25C6.54688 4.42708 6.4974 4.59896 6.39844 4.76562C6.29948 4.93229 6.16406 5.10417 5.99219 5.28125L5.4375 5.85156C5.35938 5.92969 5.32031 6.02604 5.32031 6.14062C5.32031 6.19792 5.32812 6.25521 5.34375 6.3125C5.36458 6.36458 5.38542 6.41146 5.40625 6.45312C5.53125 6.69271 5.75521 7.0026 6.07812 7.38281C6.40104 7.76302 6.7526 8.14583 7.13281 8.53125C7.51823 8.91667 7.90104 9.27083 8.28125 9.59375C8.66146 9.91146 8.97396 10.1354 9.21875 10.2656C9.25521 10.2812 9.29948 10.2995 9.35156 10.3203C9.40885 10.3411 9.46875 10.3516 9.53125 10.3516C9.65104 10.3516 9.75 10.3099 9.82812 10.2266L10.3828 9.67969C10.5599 9.5026 10.7318 9.36719 10.8984 9.27344C11.0651 9.17448 11.237 9.125 11.4141 9.125C11.5547 9.125 11.7031 9.15625 11.8594 9.21875C12.0156 9.28125 12.1849 9.375 12.3672 9.5L14.7656 11.2031C14.9531 11.3333 15.0859 11.4896 15.1641 11.6719C15.2422 11.849 15.2812 12.0365 15.2812 12.2344C15.2812 12.5 15.2214 12.763 15.1016 13.0234C14.9818 13.2891 14.8177 13.5365 14.6094 13.7656C14.2552 14.1562 13.8594 14.4427 13.4219 14.625C12.9844 14.8073 12.513 14.8984 12.0078 14.8984C11.263 14.8984 10.474 14.7214 9.64062 14.3672C8.80729 14.013 7.97396 13.5339 7.14062 12.9297C6.30729 12.3255 5.51562 11.6484 4.76562 10.8984Z" fill="#A5A5A5"/>
</svg>
