<svg width="17" height="17" viewBox="0 0 17 17" fill="none" xmlns="http://www.w3.org/2000/svg">
<path d="M0.796875 6.89062C0.796875 6.03125 0.958333 5.22656 1.28125 4.47656C1.60417 3.72135 2.05208 3.05729 2.625 2.48438C3.19792 1.91146 3.85938 1.46354 4.60938 1.14062C5.36458 0.817708 6.17188 0.65625 7.03125 0.65625C7.89062 0.65625 8.69531 0.817708 9.44531 1.14062C10.2005 1.46354 10.8646 1.91146 11.4375 2.48438C12.0104 3.05729 12.4583 3.72135 12.7812 4.47656C13.1042 5.22656 13.2656 6.03125 13.2656 6.89062C13.2656 7.60417 13.151 8.28125 12.9219 8.92188C12.6979 9.5625 12.3854 10.1432 11.9844 10.6641L15.8047 14.5078C15.888 14.5911 15.9505 14.6875 15.9922 14.7969C16.0391 14.9062 16.0625 15.0234 16.0625 15.1484C16.0625 15.3203 16.0234 15.4766 15.9453 15.6172C15.8724 15.7578 15.7682 15.8672 15.6328 15.9453C15.4974 16.0286 15.3411 16.0703 15.1641 16.0703C15.0391 16.0703 14.9193 16.0469 14.8047 16C14.6953 15.9583 14.5938 15.8932 14.5 15.8047L10.6562 11.9531C10.1458 12.3177 9.58333 12.6042 8.96875 12.8125C8.35417 13.0208 7.70833 13.125 7.03125 13.125C6.17188 13.125 5.36458 12.9635 4.60938 12.6406C3.85938 12.3177 3.19792 11.8698 2.625 11.2969C2.05208 10.724 1.60417 10.0625 1.28125 9.3125C0.958333 8.55729 0.796875 7.75 0.796875 6.89062ZM2.13281 6.89062C2.13281 7.56771 2.25781 8.20312 2.50781 8.79688C2.76302 9.38542 3.11458 9.90365 3.5625 10.3516C4.01562 10.7995 4.53646 11.151 5.125 11.4062C5.71875 11.6615 6.35417 11.7891 7.03125 11.7891C7.70833 11.7891 8.34115 11.6615 8.92969 11.4062C9.52344 11.151 10.0443 10.7995 10.4922 10.3516C10.9401 9.90365 11.2917 9.38542 11.5469 8.79688C11.8021 8.20312 11.9297 7.56771 11.9297 6.89062C11.9297 6.21354 11.8021 5.58073 11.5469 4.99219C11.2917 4.39844 10.9401 3.8776 10.4922 3.42969C10.0443 2.97656 9.52344 2.625 8.92969 2.375C8.34115 2.11979 7.70833 1.99219 7.03125 1.99219C6.35417 1.99219 5.71875 2.11979 5.125 2.375C4.53646 2.625 4.01562 2.97656 3.5625 3.42969C3.11458 3.8776 2.76302 4.39844 2.50781 4.99219C2.25781 5.58073 2.13281 6.21354 2.13281 6.89062Z" fill="#A5A5A5"/>
</svg>
