<svg width="17" height="19" viewBox="0 0 17 19" fill="none" xmlns="http://www.w3.org/2000/svg">
<path d="M1.66016 18.3945C1.13932 18.3945 0.729167 18.2773 0.429688 18.043C0.136719 17.8151 -0.00976562 17.4993 -0.00976562 17.0957C-0.00976562 16.4707 0.179036 15.8099 0.556641 15.1133C0.934245 14.4167 1.48112 13.7656 2.19727 13.1602C2.91341 12.5482 3.77604 12.0534 4.78516 11.6758C5.80078 11.2917 6.9401 11.0996 8.20312 11.0996C9.47266 11.0996 10.612 11.2917 11.6211 11.6758C12.6367 12.0534 13.4993 12.5482 14.209 13.1602C14.9251 13.7656 15.472 14.4167 15.8496 15.1133C16.2337 15.8099 16.4258 16.4707 16.4258 17.0957C16.4258 17.4993 16.276 17.8151 15.9766 18.043C15.6836 18.2773 15.2767 18.3945 14.7559 18.3945H1.66016ZM8.21289 9.35156C7.51628 9.35156 6.87174 9.16276 6.2793 8.78516C5.68685 8.40104 5.20833 7.88672 4.84375 7.24219C4.48568 6.59115 4.30664 5.86198 4.30664 5.05469C4.30664 4.26042 4.48568 3.54427 4.84375 2.90625C5.20833 2.26823 5.68685 1.76367 6.2793 1.39258C6.87174 1.02148 7.51628 0.835938 8.21289 0.835938C8.90951 0.835938 9.55404 1.01823 10.1465 1.38281C10.7389 1.7474 11.2142 2.2487 11.5723 2.88672C11.9368 3.51823 12.1191 4.23438 12.1191 5.03516C12.1191 5.84896 11.9368 6.58138 11.5723 7.23242C11.2142 7.88346 10.7389 8.40104 10.1465 8.78516C9.55404 9.16276 8.90951 9.35156 8.21289 9.35156Z" fill="#5B5B5B"/>
</svg>
