<svg width="24" height="20" viewBox="0 0 24 20" fill="none" xmlns="http://www.w3.org/2000/svg">
<path fill-rule="evenodd" clip-rule="evenodd" d="M20.7492 0.483419C21.9731 -0.0319101 23.2852 1.00301 23.0691 2.3133L20.5165 17.7896C20.2704 19.2818 18.6315 20.138 17.2625 19.3944C16.1169 18.7722 14.4172 17.8145 12.8855 16.8135C12.1206 16.3137 9.77844 14.711 10.0663 13.5701C10.3125 12.5947 14.2498 8.92951 16.4999 6.74987C17.3837 5.89364 16.9812 5.399 15.9373 6.18733C13.348 8.14294 9.19099 11.1162 7.81628 11.953C6.60337 12.6912 5.97009 12.8172 5.21472 12.6912C3.83532 12.4614 2.55646 12.1054 1.51237 11.6726C0.101201 11.0876 0.169936 9.14835 1.51141 8.58358L20.7492 0.483419Z" fill="white"/>
</svg>
