<svg width="19" height="19" viewBox="0 0 19 19" fill="none" xmlns="http://www.w3.org/2000/svg">
<path d="M17.0027 2.11133C17.4975 2.60612 17.81 3.19857 17.9402 3.88867C18.0769 4.57227 18.1453 5.33073 18.1453 6.16406V13.5176C18.1453 14.3509 18.0769 15.1126 17.9402 15.8027C17.81 16.4863 17.4975 17.0755 17.0027 17.5703C16.5014 18.0716 15.9057 18.3874 15.2156 18.5176C14.5255 18.6543 13.7638 18.7227 12.9304 18.7227H5.5769C4.74357 18.7227 3.98185 18.6543 3.29175 18.5176C2.60815 18.3874 2.01571 18.0716 1.5144 17.5703C1.0131 17.0755 0.697347 16.4863 0.567139 15.8027C0.43693 15.1126 0.371826 14.3509 0.371826 13.5176V6.13477C0.371826 5.31445 0.43693 4.5625 0.567139 3.87891C0.703857 3.19531 1.01961 2.60612 1.5144 2.11133C2.01571 1.61003 2.60815 1.29427 3.29175 1.16406C3.98185 1.02734 4.73706 0.958984 5.55737 0.958984H12.9304C13.7638 0.958984 14.5255 1.02734 15.2156 1.16406C15.9057 1.29427 16.5014 1.61003 17.0027 2.11133ZM12.4226 12.3359C12.644 12.3359 12.8197 12.2611 12.95 12.1113C13.0867 11.9616 13.155 11.7663 13.155 11.5254V6.78906C13.155 6.48958 13.0802 6.27474 12.9304 6.14453C12.7807 6.01432 12.5756 5.94922 12.3152 5.94922H7.53979C7.30542 5.94922 7.11662 6.01758 6.97339 6.1543C6.83016 6.29102 6.75854 6.47005 6.75854 6.69141C6.75854 6.91276 6.83016 7.0918 6.97339 7.22852C7.12313 7.36523 7.31844 7.43359 7.55933 7.43359H9.37573L10.8699 7.27734L9.30737 8.74219L5.6062 12.4336C5.44344 12.5964 5.36206 12.7754 5.36206 12.9707C5.36206 13.2051 5.43042 13.3906 5.56714 13.5273C5.70386 13.6641 5.87964 13.7324 6.09448 13.7324C6.21818 13.7324 6.32886 13.7129 6.42651 13.6738C6.52417 13.6283 6.60881 13.5697 6.68042 13.498L10.3718 9.79688L11.8171 8.25391L11.6707 9.81641V11.5449C11.6707 11.7923 11.739 11.9876 11.8757 12.1309C12.0125 12.2676 12.1947 12.3359 12.4226 12.3359Z" fill="#A5A5A5"/>
</svg>
