<svg width="28" height="28" viewBox="0 0 28 28" fill="none" xmlns="http://www.w3.org/2000/svg">
<path d="M20.4787 16.0139C20.4261 15.9886 18.4577 15.0194 18.1079 14.8935C17.9651 14.8422 17.8121 14.7921 17.6494 14.7921C17.3836 14.7921 17.1604 14.9246 16.9865 15.1848C16.7898 15.477 16.1946 16.1728 16.0107 16.3807C15.9867 16.4081 15.9539 16.4409 15.9342 16.4409C15.9166 16.4409 15.612 16.3154 15.5198 16.2754C13.4082 15.3582 11.8055 13.1525 11.5857 12.7805C11.5544 12.7271 11.5531 12.7028 11.5528 12.7028C11.5605 12.6745 11.6315 12.6033 11.6682 12.5666C11.7754 12.4605 11.8915 12.3207 12.0039 12.1854C12.0571 12.1213 12.1104 12.0572 12.1627 11.9967C12.3258 11.807 12.3984 11.6597 12.4825 11.4891L12.5266 11.4005C12.7321 10.9922 12.5566 10.6477 12.4999 10.5365C12.4533 10.4434 11.6222 8.43749 11.5339 8.22675C11.3214 7.71822 11.0406 7.48145 10.6504 7.48145C10.6142 7.48145 10.6504 7.48145 10.4986 7.48784C10.3137 7.49565 9.30688 7.62819 8.86173 7.9088C8.38967 8.20641 7.59106 9.1551 7.59106 10.8235C7.59106 12.3251 8.54395 13.7428 8.95307 14.282C8.96324 14.2956 8.98192 14.3232 9.009 14.3629C10.5758 16.651 12.529 18.3468 14.509 19.1377C16.4152 19.8992 17.3179 19.9872 17.8311 19.9872H17.8312C18.0468 19.9872 18.2194 19.9703 18.3717 19.9553L18.4683 19.9461C19.1268 19.8877 20.5739 19.1378 20.9031 18.2231C21.1624 17.5026 21.2308 16.7154 21.0583 16.4297C20.9401 16.2354 20.7365 16.1377 20.4787 16.0139Z" fill="white"/>
<path d="M14.2397 0.5C6.92721 0.5 0.97809 6.40441 0.97809 13.6619C0.97809 16.0092 1.60628 18.3069 2.7963 20.3179L0.518564 27.0368C0.476135 27.1621 0.507694 27.3006 0.600353 27.3949C0.667239 27.4632 0.75797 27.5 0.850629 27.5C0.886132 27.5 0.921899 27.4947 0.956788 27.4835L7.96276 25.2572C9.87994 26.2816 12.0468 26.8223 14.2397 26.8223C21.5515 26.8224 27.5 20.9186 27.5 13.6619C27.5 6.40441 21.5515 0.5 14.2397 0.5ZM14.2397 24.0806C12.1762 24.0806 10.1776 23.4848 8.45955 22.3575C8.40178 22.3195 8.33472 22.3 8.26722 22.3C8.23154 22.3 8.19577 22.3055 8.16097 22.3165L4.65141 23.4321L5.78435 20.0896C5.821 19.9815 5.80268 19.8622 5.73518 19.7699C4.4269 17.9823 3.73533 15.8703 3.73533 13.6619C3.73533 7.91623 8.44754 3.24173 14.2396 3.24173C20.0309 3.24173 24.7426 7.91623 24.7426 13.6619C24.7427 19.4068 20.0311 24.0806 14.2397 24.0806Z" fill="white"/>
</svg>
