<svg width="32" height="32" viewBox="0 0 32 32" fill="none" xmlns="http://www.w3.org/2000/svg">
<path d="M10.1988 21.8032C10.108 21.7174 10.0475 21.6164 10.0172 21.5003C9.99198 21.3842 9.9945 21.2681 10.0248 21.1521C10.055 21.036 10.113 20.935 10.1988 20.8492L15.0403 15.9962L10.1988 11.1508C10.113 11.065 10.055 10.964 10.0248 10.8479C9.99954 10.7319 9.99954 10.6158 10.0248 10.4997C10.055 10.3836 10.113 10.2826 10.1988 10.1968C10.2845 10.106 10.3854 10.0479 10.5013 10.0227C10.6173 9.99243 10.7333 9.99243 10.8493 10.0227C10.9704 10.0479 11.0738 10.106 11.1595 10.1968L16.001 15.0423L20.8426 10.1968C20.9283 10.106 21.0292 10.0479 21.1452 10.0227C21.2612 9.99243 21.3772 9.99243 21.4932 10.0227C21.6091 10.0479 21.7125 10.106 21.8033 10.1968C21.889 10.2826 21.947 10.3836 21.9773 10.4997C22.0076 10.6158 22.0076 10.7319 21.9773 10.8479C21.947 10.964 21.889 11.065 21.8033 11.1508L16.9618 15.9962L21.8033 20.8492C21.889 20.935 21.9445 21.036 21.9697 21.1521C22 21.2681 22 21.3842 21.9697 21.5003C21.9445 21.6164 21.889 21.7174 21.8033 21.8032C21.7176 21.894 21.6142 21.9521 21.4932 21.9773C21.3772 22.0076 21.2612 22.0076 21.1452 21.9773C21.0292 21.947 20.9283 21.889 20.8426 21.8032L16.001 16.9577L11.1595 21.8032C11.0738 21.889 10.9729 21.947 10.8569 21.9773C10.7409 22.0076 10.6249 22.0076 10.5089 21.9773C10.3929 21.947 10.2895 21.889 10.1988 21.8032Z" fill="#7F7F7F"/>
</svg>
